<?xml version="1.0" standalone="no"?>
<!DOCTYPE svg PUBLIC "-//W3C//DTD SVG 20010904//EN"
 "http://www.w3.org/TR/2001/REC-SVG-20010904/DTD/svg10.dtd">
<svg version="1.0" xmlns="http://www.w3.org/2000/svg"
 width="10722.000000pt" height="2126.000000pt" viewBox="0 0 10722.000000 2126.000000"
 preserveAspectRatio="xMidYMid meet">

<g transform="translate(0.000000,2126.000000) scale(0.100000,-0.100000)"
fill="#000000" stroke="none">
<path d="M8226 20260 c-888 -49 -1699 -378 -2391 -973 -105 -91 -3500 -3484
-3624 -3622 -405 -453 -696 -876 -956 -1390 -660 -1302 -840 -2797 -510 -4237
326 -1421 1163 -2705 2340 -3587 521 -391 1079 -687 1707 -905 l177 -62 -880
-879 c-484 -484 -915 -920 -957 -970 -384 -454 -501 -1054 -315 -1615 186
-561 670 -987 1255 -1105 476 -95 991 32 1373 338 28 22 357 347 732 721 375
374 684 678 686 676 174 -227 302 -375 449 -516 951 -914 2254 -1292 3554
-1029 655 133 1250 426 1780 875 113 96 4879 4851 5127 5115 295 314 507 614
682 965 204 406 328 813 392 1290 26 195 26 775 0 970 -92 679 -322 1272 -702
1805 -915 1284 -2475 1897 -4028 1584 -645 -130 -1248 -426 -1777 -872 -52
-45 -887 -871 -1855 -1837 -968 -966 -1798 -1787 -1845 -1824 -291 -231 -654
-419 -1008 -520 -284 -82 -490 -110 -807 -110 -317 0 -523 28 -807 110 -354
101 -718 289 -1008 520 -109 86 -376 354 -463 464 -647 814 -812 1906 -435
2873 120 308 294 595 514 847 45 52 838 849 1761 1771 1578 1575 1682 1678
1750 1713 188 96 384 100 571 10 59 -28 96 -56 158 -118 127 -127 184 -264
184 -439 0 -110 -19 -188 -72 -292 -40 -78 -75 -114 -1783 -1825 -1613 -1616
-1747 -1753 -1812 -1850 -131 -195 -217 -397 -264 -620 -31 -144 -34 -473 -5
-625 125 -674 629 -1189 1309 -1337 89 -19 132 -22 332 -22 201 0 242 2 330
22 225 50 415 130 601 253 104 68 191 154 1925 1888 1443 1442 1837 1842 1915
1941 486 614 759 1279 850 2065 23 201 23 633 0 830 -81 697 -311 1314 -692
1855 -790 1124 -2088 1754 -3458 1680z m6834 -9835 c167 -44 330 -176 402
-325 107 -222 83 -467 -66 -658 -24 -31 -1153 -1164 -2508 -2518 -2408 -2406
-2465 -2461 -2538 -2497 -101 -50 -177 -68 -287 -68 -177 0 -310 56 -439 185
-93 93 -144 186 -170 308 -32 148 1 327 82 456 44 70 4918 4951 5010 5018 114
82 211 112 359 113 58 1 123 -5 155 -14z"/>
<path d="M32840 12275 l0 -5835 1200 0 1200 0 0 5835 0 5835 -1200 0 -1200 0
0 -5835z"/>
<path d="M99830 17660 l-1175 -358 -3 -5431 -2 -5431 1195 0 1194 0 4 2303 c3
2418 2 2332 48 2567 124 623 505 1005 1114 1116 143 26 480 26 620 0 638 -118
1020 -555 1085 -1241 6 -72 10 -904 10 -2427 l0 -2318 1195 0 1195 0 0 2584
c0 1725 -4 2628 -11 2713 -116 1418 -880 2440 -2089 2797 -464 137 -1041 159
-1590 60 -621 -112 -1168 -409 -1500 -813 l-75 -92 -3 2166 c-2 2054 -3 2165
-20 2164 -9 -1 -546 -162 -1192 -359z"/>
<path d="M61045 17994 c-530 -82 -988 -476 -1153 -995 -50 -158 -65 -274 -59
-472 7 -240 41 -378 142 -582 209 -419 608 -716 1063 -790 152 -25 409 -17
548 18 274 70 490 192 689 392 209 208 339 449 402 745 28 132 25 411 -6 550
-43 196 -106 341 -222 516 -181 270 -479 487 -794 579 -187 54 -417 69 -610
39z"/>
<path d="M55865 16025 l-1190 -362 -5 -614 -5 -614 -637 -3 -638 -2 0 -1150 0
-1150 640 0 640 0 0 -1537 c0 -1528 3 -1710 36 -1998 137 -1219 700 -1874
1814 -2110 387 -81 866 -114 1389 -95 252 9 380 18 719 46 l82 7 0 1089 0
1089 -52 -8 c-29 -4 -222 -7 -428 -8 -313 0 -394 3 -488 18 -391 62 -576 196
-655 474 l-22 78 -3 1478 -3 1477 826 0 825 0 0 1150 0 1150 -822 2 -823 3 -5
975 -5 976 -1190 -361z"/>
<path d="M94445 16025 l-1190 -361 -5 -614 -5 -615 -637 -3 -638 -2 0 -1150 0
-1150 640 0 640 0 0 -1562 c0 -1552 3 -1706 36 -1988 147 -1263 752 -1917
1964 -2124 347 -59 784 -82 1235 -66 255 9 383 17 723 46 l82 7 0 1089 0 1089
-67 -8 c-38 -4 -230 -8 -428 -8 -392 0 -493 9 -673 61 -144 42 -227 87 -307
168 -81 82 -116 142 -148 253 l-22 78 -3 1483 -3 1482 826 0 825 0 0 1150 0
1150 -822 2 -823 3 -5 976 -5 975 -1190 -361z"/>
<path d="M27240 14653 c-768 -27 -1503 -238 -2114 -605 -423 -254 -822 -614
-1113 -1003 -446 -595 -709 -1271 -808 -2075 -23 -182 -31 -682 -16 -889 160
-2103 1629 -3588 3781 -3825 646 -71 1297 -34 1875 109 899 221 1616 687 2175
1413 39 50 60 86 54 92 -5 5 -436 254 -958 554 l-949 546 -76 -73 c-394 -380
-1017 -576 -1679 -528 -468 34 -808 136 -1102 332 -130 86 -316 272 -403 404
-59 90 -165 294 -182 353 l-6 22 2835 0 2835 0 10 53 c61 309 76 480 76 902 0
407 -9 518 -61 825 -161 948 -633 1815 -1311 2410 -681 598 -1505 927 -2451
980 -167 9 -236 10 -412 3z m398 -2134 c299 -32 570 -126 796 -276 137 -90
329 -282 419 -418 78 -119 162 -290 211 -433 20 -57 36 -108 36 -113 0 -5
-701 -9 -1715 -9 -943 0 -1715 2 -1715 5 0 3 16 53 36 112 190 569 592 943
1165 1083 64 15 158 33 210 39 52 6 108 13 124 15 71 8 344 5 433 -5z"/>
<path d="M40186 14650 c-669 -47 -1304 -275 -1851 -665 -184 -132 -306 -236
-486 -415 -337 -337 -580 -675 -794 -1110 -253 -515 -397 -1053 -446 -1663
-15 -194 -7 -705 15 -887 90 -753 320 -1393 711 -1980 589 -883 1462 -1472
2455 -1654 526 -97 1200 -61 1700 91 183 55 294 99 465 183 274 135 508 303
722 518 l113 114 2 -369 3 -368 1198 -3 1197 -2 0 3995 0 3995 -1200 0 -1200
0 0 -369 0 -368 -102 105 c-482 491 -1115 773 -1893 842 -170 15 -466 19 -609
10z m899 -2271 c267 -23 500 -88 735 -206 343 -172 609 -445 775 -796 135
-285 195 -575 195 -935 0 -386 -65 -679 -216 -981 -174 -346 -450 -616 -799
-782 -413 -195 -949 -242 -1417 -124 -656 167 -1124 637 -1293 1299 -52 207
-68 342 -69 576 0 294 28 485 110 730 129 389 356 691 683 911 354 238 821
349 1296 308z"/>
<path d="M49547 14649 c-365 -20 -724 -87 -1057 -198 -957 -320 -1584 -985
-1759 -1866 -39 -195 -51 -327 -51 -549 0 -353 50 -620 169 -900 98 -231 237
-433 431 -626 386 -385 941 -662 1850 -923 124 -36 339 -97 478 -137 508 -143
751 -244 877 -362 104 -96 135 -177 116 -297 -37 -227 -226 -362 -579 -413
-131 -19 -455 -15 -577 6 -436 78 -737 287 -938 652 -30 54 -70 136 -88 182
-22 56 -37 81 -46 77 -11 -4 -2052 -1163 -2061 -1170 -11 -9 144 -284 248
-440 446 -666 1112 -1116 1957 -1324 791 -195 1758 -185 2523 24 551 151 1022
408 1355 740 283 282 485 633 586 1019 113 435 115 950 3 1384 -167 652 -595
1134 -1319 1482 -350 169 -656 272 -1380 464 -532 141 -689 192 -865 282 -133
68 -209 133 -251 219 -30 60 -31 70 -27 149 12 238 196 380 537 417 165 18
353 -2 506 -53 250 -82 483 -285 645 -561 30 -51 50 -76 60 -74 14 4 2019
1082 2028 1091 6 6 -14 41 -97 166 -297 449 -689 816 -1156 1082 -384 218
-859 372 -1335 432 -255 32 -505 40 -783 25z"/>
<path d="M67793 14650 c-1558 -88 -2877 -943 -3538 -2291 -305 -623 -449
-1295 -432 -2024 8 -356 46 -650 123 -962 263 -1074 923 -1980 1851 -2541
1059 -641 2434 -789 3627 -391 433 144 827 352 1190 627 327 248 643 582 869
920 91 136 182 290 176 296 -2 2 -470 270 -1039 596 -569 326 -1038 594 -1042
597 -4 2 -19 -20 -34 -49 -212 -423 -629 -711 -1179 -815 -125 -24 -474 -29
-615 -9 -835 117 -1413 717 -1520 1576 -15 126 -12 421 6 552 128 935 842
1558 1782 1558 311 0 584 -60 837 -185 301 -147 519 -356 689 -658 15 -27 31
-47 35 -45 23 9 2058 1193 2070 1204 12 10 2 32 -64 139 -153 249 -308 447
-525 669 -399 408 -871 723 -1404 936 -581 231 -1228 336 -1863 300z"/>
<path d="M77310 14654 c-578 -31 -1004 -136 -1417 -349 -257 -132 -456 -277
-665 -486 l-128 -126 0 368 0 369 -1200 0 -1200 0 0 -5590 0 -5590 1200 0
1200 0 0 1968 0 1967 142 -140 c504 -495 1137 -759 1954 -815 532 -36 1028 34
1514 212 177 65 502 225 665 328 600 379 1083 911 1422 1565 261 506 420 1054
479 1655 23 231 23 670 0 900 -104 1055 -533 1989 -1232 2684 -613 610 -1391
983 -2219 1065 -114 11 -418 20 -515 15z m7 -2289 c222 -33 390 -84 578 -175
662 -319 1032 -1000 1002 -1840 -7 -190 -24 -314 -68 -488 -217 -873 -956
-1402 -1909 -1369 -507 18 -938 190 -1264 506 -382 371 -572 889 -553 1515 10
356 73 618 213 899 285 571 822 912 1529 971 94 8 363 -3 472 -19z"/>
<path d="M85846 14650 c-746 -52 -1431 -322 -2036 -804 -154 -123 -467 -434
-582 -579 -566 -713 -885 -1529 -959 -2460 -15 -198 -7 -727 15 -907 158
-1292 792 -2384 1771 -3049 762 -517 1624 -717 2565 -595 365 47 685 142 995
294 272 134 503 300 719 517 l116 116 2 -369 3 -369 1198 -3 1197 -2 0 3995 0
3995 -1200 0 -1200 0 0 -369 0 -368 -102 105 c-479 488 -1119 773 -1893 842
-170 15 -466 19 -609 10z m899 -2271 c392 -33 759 -174 1036 -397 366 -295
601 -750 659 -1277 13 -119 13 -411 -1 -533 -33 -306 -133 -609 -279 -847
-161 -263 -439 -511 -720 -644 -625 -294 -1438 -244 -1989 123 -439 292 -699
738 -783 1341 -19 134 -15 484 6 630 83 567 345 1007 775 1296 353 238 821
349 1296 308z"/>
<path d="M60062 10438 l3 -3993 1198 -3 1197 -2 0 3995 0 3995 -1200 0 -1200
0 2 -3992z"/>
</g>
</svg>
