<svg id="svg" version="1.1" xmlns="http://www.w3.org/2000/svg" xmlns:xlink="http://www.w3.org/1999/xlink" width="400" height="79.31356090281665" viewBox="0, 0, 400,79.31356090281665"><g id="svgg"><path id="path0" d="M29.750 3.665 C 27.021 4.051,24.119 5.200,22.482 6.543 C 21.576 7.287,9.183 19.606,7.779 21.158 C 3.977 25.362,1.733 31.814,2.065 37.583 C 2.165 39.322,2.257 39.895,2.906 42.813 C 3.927 47.402,7.620 52.619,12.083 55.779 C 13.216 56.580,16.475 58.333,16.833 58.333 C 16.931 58.333,17.284 58.448,17.618 58.587 L 18.226 58.841 14.649 62.462 C 10.310 66.854,10.083 67.212,10.083 69.670 C 10.083 73.390,12.645 75.917,16.417 75.917 C 18.944 75.917,19.406 75.651,22.873 72.206 C 24.409 70.679,25.667 69.519,25.667 69.628 C 25.667 69.860,27.638 71.829,28.691 72.649 C 33.448 76.354,41.404 76.363,46.333 72.671 C 47.279 71.963,66.391 52.991,67.402 51.757 C 68.486 50.434,69.592 48.222,70.043 46.474 C 71.526 40.727,69.204 33.834,64.749 30.762 C 64.474 30.572,63.987 30.220,63.666 29.980 C 60.146 27.339,53.590 26.973,49.144 29.168 C 46.996 30.228,46.463 30.699,39.267 37.872 C 35.518 41.609,32.405 44.667,32.350 44.667 C 32.295 44.668,32.011 44.893,31.718 45.167 C 29.386 47.353,23.583 47.930,21.088 46.225 C 20.907 46.101,20.660 46.000,20.539 46.000 C 20.247 46.000,18.559 44.756,17.859 44.025 C 14.216 40.219,13.740 34.560,16.713 30.401 C 18.080 28.488,30.124 16.677,30.926 16.462 C 31.974 16.182,32.756 16.528,33.308 17.516 C 34.101 18.938,34.193 18.816,26.750 26.238 C 18.918 34.049,18.917 34.051,18.917 36.750 C 18.917 41.497,23.723 44.577,27.914 42.514 C 28.986 41.986,41.582 29.735,43.351 27.500 C 46.723 23.238,47.324 15.445,44.597 11.325 C 44.361 10.967,44.167 10.601,44.167 10.512 C 44.167 10.163,41.934 7.699,40.790 6.786 C 37.858 4.446,33.316 3.162,29.750 3.665 M56.298 40.513 C 57.449 40.914,58.067 42.390,57.527 43.445 C 57.061 44.355,38.999 62.358,38.294 62.615 C 36.452 63.288,34.773 61.387,35.670 59.645 C 36.008 58.989,54.309 40.828,54.885 40.578 C 55.539 40.293,55.653 40.288,56.298 40.513 " stroke="none" fill="#0434cc" fill-rule="evenodd"></path><path id="path1" d="M122.500 33.417 L 122.500 55.333 127.000 55.333 L 131.500 55.333 131.500 33.417 L 131.500 11.500 127.000 11.500 L 122.500 11.500 122.500 33.417 M375.583 12.288 C 374.850 12.511,373.238 12.998,372.000 13.371 C 370.762 13.743,369.337 14.175,368.833 14.330 L 367.917 14.611 367.874 34.972 L 367.832 55.333 372.494 55.333 L 377.156 55.333 377.203 45.958 L 377.250 36.583 377.738 35.702 C 379.730 32.107,385.157 32.027,387.050 35.565 C 387.414 36.244,387.417 36.327,387.467 45.792 L 387.518 55.333 392.184 55.333 L 396.850 55.333 396.786 44.875 C 396.733 36.084,396.682 34.271,396.465 33.500 C 395.049 28.462,392.678 25.910,388.422 24.839 C 384.606 23.879,378.962 25.178,377.427 27.370 C 377.190 27.708,377.167 27.049,377.167 19.880 C 377.167 15.557,377.110 11.989,377.042 11.951 C 376.973 11.913,376.317 12.065,375.583 12.288 M226.369 12.447 C 222.029 14.311,222.059 20.584,226.417 22.461 C 230.026 24.015,234.054 21.364,234.031 17.449 C 234.009 13.500,230.004 10.886,226.369 12.447 M212.417 18.110 C 212.233 18.149,211.146 18.473,210.000 18.832 C 208.854 19.191,206.998 19.764,205.875 20.105 L 203.833 20.725 203.833 22.946 L 203.833 25.167 201.500 25.167 L 199.167 25.167 199.167 29.667 L 199.167 34.167 201.488 34.167 L 203.810 34.167 203.876 41.042 C 203.921 45.844,204.003 48.118,204.146 48.583 C 205.437 52.775,207.145 54.439,210.989 55.248 C 212.199 55.502,218.328 55.619,218.903 55.399 C 219.134 55.310,219.167 54.776,219.167 51.126 L 219.167 46.954 218.068 47.043 C 216.680 47.154,215.061 46.957,214.266 46.580 C 213.178 46.063,213.167 45.994,213.167 39.758 L 213.167 34.167 216.169 34.167 L 219.172 34.167 219.128 29.708 L 219.083 25.250 216.128 25.205 L 213.173 25.159 213.128 21.635 C 213.083 18.047,213.068 17.974,212.417 18.110 M356.167 18.157 C 355.846 18.222,354.683 18.562,353.583 18.912 C 352.483 19.262,350.721 19.823,349.667 20.157 L 347.750 20.766 347.703 22.966 L 347.657 25.167 345.328 25.167 L 343.000 25.167 343.000 29.667 L 343.000 34.167 345.333 34.167 L 347.667 34.167 347.667 39.875 C 347.668 51.318,348.932 53.979,354.977 55.260 C 356.100 55.498,362.194 55.607,362.736 55.399 C 362.967 55.310,363.000 54.780,363.000 51.163 L 363.000 47.028 361.084 47.032 C 357.076 47.040,357.001 46.903,357.000 39.625 L 357.000 34.167 360.000 34.167 L 363.000 34.167 363.000 29.667 L 363.000 25.167 360.000 25.167 L 357.000 25.167 357.000 21.583 C 357.000 19.612,356.944 18.009,356.875 18.019 C 356.806 18.030,356.488 18.092,356.167 18.157 M99.667 24.610 C 93.126 25.897,88.067 30.212,86.997 35.417 C 86.109 39.736,86.109 40.984,86.991 45.207 C 87.471 47.507,90.010 51.260,92.079 52.731 C 92.351 52.925,92.679 53.181,92.808 53.300 C 92.936 53.420,93.688 53.840,94.479 54.234 C 101.748 57.857,111.645 56.158,115.635 50.602 L 116.168 49.860 115.214 49.263 C 114.690 48.935,114.199 48.667,114.123 48.667 C 114.048 48.667,113.765 48.517,113.493 48.333 C 113.222 48.150,112.778 47.850,112.507 47.667 C 112.235 47.483,111.930 47.333,111.828 47.333 C 111.727 47.333,111.330 47.119,110.947 46.856 C 110.564 46.594,109.928 46.215,109.534 46.015 L 108.817 45.652 108.200 46.125 C 106.560 47.386,105.166 47.835,102.917 47.829 C 101.392 47.825,99.226 47.381,98.686 46.961 C 97.417 45.975,96.939 45.484,96.580 44.797 L 96.163 44.000 106.647 44.000 C 116.101 44.000,117.141 43.974,117.233 43.733 C 117.524 42.976,117.672 40.270,117.508 38.722 C 116.771 31.794,112.586 26.577,106.495 24.994 C 105.110 24.634,100.782 24.391,99.667 24.610 M147.399 24.906 C 134.312 28.224,132.398 48.120,144.541 54.623 C 149.116 57.073,155.676 56.455,159.042 53.255 L 159.500 52.820 159.500 54.077 L 159.500 55.333 164.083 55.333 L 168.667 55.333 168.667 40.247 L 168.667 25.161 164.125 25.206 L 159.583 25.250 159.534 26.469 L 159.485 27.688 158.917 27.190 C 156.188 24.794,151.506 23.865,147.399 24.906 M183.333 24.608 C 179.183 25.431,176.408 27.210,175.036 29.928 C 172.373 35.204,174.866 40.905,180.670 42.807 C 182.630 43.450,185.048 44.192,185.856 44.398 C 189.694 45.380,189.555 47.818,185.660 47.830 C 183.394 47.836,181.750 46.917,180.973 45.208 C 180.527 44.227,180.425 44.246,178.298 45.693 C 178.050 45.862,177.778 46.000,177.693 46.000 C 177.608 46.000,176.949 46.349,176.228 46.777 C 175.507 47.204,174.493 47.804,173.975 48.110 C 173.457 48.416,172.951 48.667,172.850 48.667 C 172.447 48.667,172.714 49.348,173.637 50.682 C 178.836 58.193,193.412 58.033,197.183 50.423 L 197.917 48.942 197.915 46.263 C 197.912 43.376,197.885 43.266,196.670 41.167 C 196.272 40.479,194.976 39.249,194.257 38.877 C 193.978 38.733,193.563 38.479,193.333 38.312 C 192.702 37.854,189.015 36.627,186.417 36.012 C 183.777 35.386,182.695 33.919,184.199 33.005 C 185.858 31.996,188.504 32.926,189.592 34.902 C 189.765 35.216,193.829 33.317,195.147 32.305 C 195.366 32.137,195.643 32.000,195.762 32.000 C 196.094 32.000,197.489 31.109,197.495 30.893 C 197.518 30.065,194.556 27.153,192.625 26.104 C 190.338 24.862,185.765 24.126,183.333 24.608 M251.417 24.602 C 251.233 24.647,250.415 24.834,249.598 25.019 C 240.963 26.975,235.634 37.122,238.827 45.524 C 239.014 46.015,239.167 46.503,239.167 46.609 C 239.167 46.715,239.440 47.277,239.774 47.859 C 240.108 48.441,240.482 49.109,240.604 49.344 C 241.902 51.837,246.369 54.897,249.833 55.665 C 252.864 56.337,254.739 56.302,258.568 55.504 C 259.513 55.307,262.424 53.890,263.277 53.212 C 264.415 52.307,266.167 50.609,266.167 50.410 C 266.167 50.298,266.289 50.106,266.439 49.981 C 266.860 49.632,267.533 48.492,267.446 48.276 C 267.403 48.170,267.004 47.899,266.559 47.673 C 266.114 47.448,265.292 46.979,264.732 46.632 C 264.172 46.284,263.666 46.000,263.608 46.000 C 263.550 46.000,262.960 45.662,262.297 45.250 C 261.634 44.837,261.030 44.500,260.954 44.500 C 260.878 44.500,260.543 44.315,260.210 44.089 C 259.606 43.678,259.167 43.740,259.167 44.235 C 259.167 45.596,254.987 47.440,252.819 47.037 C 244.777 45.541,245.618 33.583,253.765 33.583 C 256.232 33.583,258.812 35.018,259.373 36.702 C 259.429 36.871,259.522 36.871,259.847 36.698 C 260.068 36.580,260.475 36.366,260.750 36.221 C 261.025 36.077,261.717 35.668,262.288 35.313 C 262.858 34.957,263.384 34.667,263.456 34.667 C 263.529 34.667,263.962 34.417,264.419 34.112 C 264.876 33.807,265.587 33.390,266.000 33.186 C 267.331 32.528,267.572 32.281,267.332 31.818 C 265.817 28.888,261.787 25.916,258.072 24.989 C 256.631 24.629,252.333 24.380,251.417 24.602 M285.415 24.902 C 284.590 25.112,283.652 25.418,283.332 25.582 C 282.361 26.081,280.868 27.144,280.601 27.526 C 280.365 27.862,280.345 27.799,280.299 26.568 L 280.250 25.250 275.708 25.206 L 271.167 25.161 271.167 46.164 L 271.167 67.167 275.750 67.167 L 280.333 67.167 280.333 59.976 L 280.333 52.785 280.708 53.189 C 283.607 56.315,290.540 57.063,295.055 54.736 C 296.996 53.735,300.329 50.942,300.333 50.314 C 300.333 50.257,300.671 49.708,301.083 49.092 C 301.496 48.477,301.833 47.845,301.833 47.687 C 301.833 47.529,301.907 47.326,301.998 47.236 C 303.589 45.645,303.790 37.821,302.334 34.147 C 299.442 26.847,292.565 23.089,285.415 24.902 M317.739 24.895 C 305.790 28.004,302.760 45.533,312.821 53.344 C 317.524 56.995,325.376 57.043,329.125 53.444 L 329.833 52.764 329.833 54.049 L 329.833 55.333 334.417 55.333 L 339.000 55.333 339.000 40.247 L 339.000 25.161 334.458 25.206 L 329.917 25.250 329.868 26.463 L 329.819 27.677 329.118 27.108 C 326.207 24.746,321.688 23.867,317.739 24.895 M224.000 40.247 L 224.000 55.333 228.584 55.333 L 233.168 55.333 233.126 40.292 L 233.083 25.250 228.542 25.206 L 224.000 25.161 224.000 40.247 M104.392 33.005 C 105.809 33.442,106.747 34.166,107.625 35.498 C 108.816 37.305,109.268 37.167,102.167 37.167 C 98.005 37.167,96.000 37.110,96.000 36.993 C 96.000 36.510,97.127 34.751,97.830 34.137 C 99.398 32.767,102.109 32.299,104.392 33.005 M155.666 33.837 C 160.823 36.460,160.850 44.161,155.712 46.763 C 154.250 47.503,150.909 47.499,149.441 46.755 C 144.438 44.221,144.223 36.998,149.061 34.048 C 150.735 33.028,153.878 32.927,155.666 33.837 M290.333 33.805 C 293.574 35.352,295.152 39.764,293.667 43.122 C 293.483 43.537,293.333 43.970,293.333 44.086 C 293.333 44.499,291.410 46.258,290.417 46.752 C 289.506 47.206,289.240 47.255,287.436 47.306 L 285.456 47.362 284.233 46.758 C 279.105 44.223,278.977 36.506,284.020 33.897 C 285.671 33.043,288.646 33.000,290.333 33.805 M324.289 33.324 C 331.226 34.327,331.800 45.149,325.024 47.179 C 323.775 47.553,320.725 47.302,319.673 46.738 C 314.735 44.093,314.743 36.454,319.687 33.897 C 320.939 33.249,322.462 33.059,324.289 33.324 " stroke="none" fill="#343434" fill-rule="evenodd"></path></g></svg>