<?xml version="1.0" encoding="UTF-8"?>
<svg xmlns="http://www.w3.org/2000/svg" xmlns:xlink="http://www.w3.org/1999/xlink" width="248px" height="31px" viewBox="0 0 156 31" version="1.1">
<g id="surface1">
<path style=" stroke:none;fill-rule:evenodd;fill:rgb(1.568627%,20.392157%,80%);fill-opacity:1;" d="M 11.601562 1.4375 C 10.539062 1.589844 9.40625 2.039062 8.769531 2.566406 C 8.414062 2.859375 3.582031 7.695312 3.035156 8.300781 C 1.550781 9.953125 0.675781 12.484375 0.804688 14.746094 C 0.84375 15.429688 0.878906 15.65625 1.132812 16.800781 C 1.53125 18.601562 2.972656 20.648438 4.710938 21.886719 C 5.152344 22.203125 6.425781 22.890625 6.566406 22.890625 C 6.601562 22.890625 6.742188 22.933594 6.871094 22.988281 L 7.109375 23.089844 L 5.714844 24.511719 C 4.019531 26.234375 3.933594 26.375 3.933594 27.339844 C 3.933594 28.796875 4.929688 29.789062 6.402344 29.789062 C 7.386719 29.789062 7.566406 29.6875 8.921875 28.335938 C 9.519531 27.734375 10.011719 27.28125 10.011719 27.324219 C 10.011719 27.414062 10.777344 28.1875 11.191406 28.507812 C 13.042969 29.960938 16.148438 29.964844 18.070312 28.515625 C 18.4375 28.238281 25.890625 20.792969 26.285156 20.308594 C 26.710938 19.789062 27.140625 18.921875 27.316406 18.238281 C 27.894531 15.980469 26.988281 13.277344 25.253906 12.070312 C 25.144531 11.996094 24.953125 11.859375 24.828125 11.765625 C 23.457031 10.726562 20.898438 10.585938 19.167969 11.445312 C 18.328125 11.863281 18.121094 12.046875 15.3125 14.859375 C 13.851562 16.328125 12.636719 17.527344 12.617188 17.527344 C 12.59375 17.527344 12.484375 17.617188 12.371094 17.722656 C 11.460938 18.582031 9.199219 18.808594 8.222656 18.140625 C 8.152344 18.089844 8.058594 18.050781 8.011719 18.050781 C 7.894531 18.050781 7.238281 17.5625 6.964844 17.277344 C 5.542969 15.78125 5.359375 13.5625 6.519531 11.929688 C 7.050781 11.179688 11.75 6.542969 12.0625 6.460938 C 12.46875 6.351562 12.773438 6.484375 12.988281 6.875 C 13.300781 7.429688 13.335938 7.382812 10.433594 10.296875 C 7.378906 13.359375 7.378906 13.363281 7.378906 14.421875 C 7.378906 16.285156 9.253906 17.492188 10.886719 16.683594 C 11.304688 16.476562 16.21875 11.667969 16.90625 10.792969 C 18.222656 9.117188 18.457031 6.0625 17.394531 4.445312 C 17.300781 4.304688 17.226562 4.160156 17.226562 4.125 C 17.226562 3.988281 16.355469 3.019531 15.90625 2.664062 C 14.765625 1.746094 12.992188 1.242188 11.601562 1.4375 M 21.957031 15.898438 C 22.40625 16.054688 22.644531 16.632812 22.433594 17.046875 C 22.253906 17.40625 15.210938 24.46875 14.933594 24.570312 C 14.214844 24.835938 13.5625 24.089844 13.910156 23.40625 C 14.042969 23.148438 21.179688 16.019531 21.40625 15.921875 C 21.660156 15.8125 21.703125 15.808594 21.957031 15.898438 "/>
<path style=" stroke:none;fill-rule:evenodd;fill:rgb(20.392157%,20.392157%,20.392157%);fill-opacity:1;" d="M 47.773438 13.113281 L 47.773438 21.714844 L 51.285156 21.714844 L 51.285156 4.511719 L 47.773438 4.511719 L 47.773438 13.113281 M 146.476562 4.820312 C 146.191406 4.910156 145.5625 5.101562 145.078125 5.246094 C 144.597656 5.394531 144.042969 5.5625 143.84375 5.625 L 143.488281 5.734375 L 143.472656 13.722656 L 143.453125 21.714844 L 147.089844 21.714844 L 147.128906 14.355469 L 147.316406 14.007812 C 148.09375 12.597656 150.210938 12.566406 150.949219 13.957031 C 151.089844 14.222656 151.09375 14.253906 151.113281 17.96875 L 151.132812 21.714844 L 154.773438 21.714844 L 154.746094 17.609375 C 154.726562 14.160156 154.707031 13.449219 154.621094 13.144531 C 154.070312 11.167969 153.144531 10.167969 151.484375 9.746094 C 149.996094 9.371094 147.796875 9.878906 147.195312 10.738281 C 147.105469 10.871094 147.09375 10.613281 147.09375 7.800781 C 147.09375 6.105469 147.074219 4.703125 147.046875 4.691406 C 147.019531 4.675781 146.761719 4.734375 146.476562 4.820312 M 88.285156 4.882812 C 86.589844 5.617188 86.601562 8.078125 88.300781 8.8125 C 89.710938 9.421875 91.28125 8.382812 91.273438 6.847656 C 91.261719 5.296875 89.703125 4.273438 88.285156 4.882812 M 82.84375 7.105469 C 82.769531 7.121094 82.347656 7.25 81.898438 7.390625 C 81.453125 7.53125 80.730469 7.753906 80.292969 7.890625 L 79.496094 8.132812 L 79.496094 9.875 L 77.675781 9.875 L 77.675781 13.40625 L 79.484375 13.40625 L 79.511719 16.105469 C 79.527344 17.988281 79.5625 18.882812 79.617188 19.0625 C 80.121094 20.710938 80.785156 21.363281 82.285156 21.679688 C 82.757812 21.777344 85.148438 21.824219 85.371094 21.738281 C 85.460938 21.703125 85.476562 21.496094 85.476562 20.0625 L 85.476562 18.425781 L 85.046875 18.460938 C 84.503906 18.503906 83.875 18.425781 83.5625 18.277344 C 83.140625 18.074219 83.136719 18.046875 83.136719 15.601562 L 83.136719 13.40625 L 85.476562 13.40625 L 85.460938 11.65625 L 85.441406 9.910156 L 83.136719 9.871094 L 83.121094 8.488281 C 83.101562 7.082031 83.097656 7.054688 82.84375 7.105469 M 138.90625 7.125 C 138.78125 7.152344 138.328125 7.285156 137.898438 7.421875 C 137.46875 7.558594 136.78125 7.777344 136.371094 7.910156 L 135.621094 8.148438 L 135.605469 9.011719 L 135.585938 9.875 L 133.769531 9.875 L 133.769531 13.40625 L 135.589844 13.40625 L 135.589844 15.648438 C 135.589844 20.136719 136.082031 21.179688 138.441406 21.683594 C 138.878906 21.777344 141.253906 21.820312 141.46875 21.738281 C 141.558594 21.703125 141.570312 21.496094 141.570312 20.078125 L 141.570312 18.453125 L 140.824219 18.457031 C 139.257812 18.457031 139.230469 18.40625 139.230469 15.550781 L 139.230469 13.40625 L 141.570312 13.40625 L 141.570312 9.875 L 139.230469 9.875 L 139.230469 8.46875 C 139.230469 7.695312 139.207031 7.066406 139.179688 7.070312 C 139.15625 7.074219 139.03125 7.097656 138.90625 7.125 M 38.871094 9.65625 C 36.320312 10.164062 34.347656 11.855469 33.929688 13.898438 C 33.582031 15.59375 33.582031 16.082031 33.925781 17.738281 C 34.113281 18.640625 35.105469 20.113281 35.910156 20.691406 C 36.015625 20.769531 36.144531 20.867188 36.195312 20.914062 C 36.246094 20.960938 36.539062 21.128906 36.847656 21.28125 C 39.683594 22.703125 43.542969 22.035156 45.097656 19.855469 L 45.304688 19.566406 L 44.933594 19.332031 C 44.730469 19.203125 44.539062 19.097656 44.507812 19.097656 C 44.480469 19.097656 44.367188 19.039062 44.261719 18.964844 C 44.15625 18.894531 43.984375 18.777344 43.878906 18.703125 C 43.773438 18.632812 43.652344 18.574219 43.613281 18.574219 C 43.574219 18.574219 43.417969 18.488281 43.269531 18.386719 C 43.121094 18.285156 42.871094 18.136719 42.71875 18.054688 L 42.4375 17.914062 L 42.199219 18.101562 C 41.558594 18.59375 41.015625 18.769531 40.136719 18.769531 C 39.542969 18.765625 38.699219 18.59375 38.488281 18.425781 C 37.992188 18.039062 37.804688 17.847656 37.667969 17.578125 L 37.503906 17.265625 L 41.59375 17.265625 C 45.28125 17.265625 45.683594 17.253906 45.722656 17.160156 C 45.835938 16.863281 45.890625 15.800781 45.828125 15.195312 C 45.539062 12.476562 43.910156 10.429688 41.53125 9.808594 C 40.992188 9.667969 39.304688 9.570312 38.871094 9.65625 M 57.484375 9.773438 C 52.382812 11.074219 51.636719 18.882812 56.371094 21.433594 C 58.15625 22.394531 60.714844 22.152344 62.027344 20.898438 L 62.203125 20.726562 L 62.203125 21.714844 L 65.78125 21.714844 L 65.78125 9.875 L 64.007812 9.890625 L 62.238281 9.910156 L 62.199219 10.863281 L 61.976562 10.667969 C 60.914062 9.730469 59.085938 9.363281 57.484375 9.773438 M 71.5 9.65625 C 69.882812 9.980469 68.800781 10.675781 68.265625 11.742188 C 67.226562 13.8125 68.199219 16.050781 70.460938 16.796875 C 71.226562 17.050781 72.167969 17.339844 72.484375 17.421875 C 73.980469 17.808594 73.925781 18.765625 72.40625 18.769531 C 71.523438 18.769531 70.882812 18.410156 70.578125 17.738281 C 70.40625 17.355469 70.367188 17.363281 69.535156 17.929688 C 69.441406 17.996094 69.332031 18.050781 69.300781 18.050781 C 69.265625 18.050781 69.011719 18.1875 68.730469 18.355469 C 68.449219 18.523438 68.050781 18.757812 67.851562 18.878906 C 67.648438 19 67.449219 19.097656 67.410156 19.097656 C 67.253906 19.097656 67.359375 19.363281 67.71875 19.886719 C 69.746094 22.835938 75.429688 22.773438 76.902344 19.785156 L 77.1875 19.207031 L 77.1875 18.152344 C 77.1875 17.019531 77.175781 16.976562 76.703125 16.152344 C 76.546875 15.882812 76.039062 15.402344 75.761719 15.253906 C 75.652344 15.199219 75.488281 15.097656 75.398438 15.035156 C 75.152344 14.855469 73.714844 14.371094 72.703125 14.132812 C 71.671875 13.886719 71.25 13.308594 71.835938 12.953125 C 72.484375 12.554688 73.515625 12.921875 73.941406 13.695312 C 74.007812 13.820312 75.59375 13.074219 76.105469 12.675781 C 76.191406 12.609375 76.300781 12.558594 76.347656 12.558594 C 76.476562 12.558594 77.019531 12.207031 77.023438 12.121094 C 77.03125 11.796875 75.875 10.65625 75.125 10.242188 C 74.230469 9.757812 72.449219 9.46875 71.5 9.65625 M 98.050781 9.652344 C 97.980469 9.671875 97.660156 9.746094 97.34375 9.816406 C 93.976562 10.585938 91.898438 14.566406 93.140625 17.863281 C 93.214844 18.054688 93.273438 18.246094 93.273438 18.289062 C 93.273438 18.332031 93.382812 18.550781 93.511719 18.78125 C 93.640625 19.007812 93.789062 19.269531 93.835938 19.363281 C 94.339844 20.339844 96.082031 21.542969 97.433594 21.84375 C 98.617188 22.105469 99.347656 22.09375 100.839844 21.78125 C 101.210938 21.703125 102.34375 21.148438 102.679688 20.878906 C 103.121094 20.527344 103.804688 19.859375 103.804688 19.78125 C 103.804688 19.738281 103.851562 19.660156 103.910156 19.613281 C 104.074219 19.476562 104.335938 19.027344 104.304688 18.945312 C 104.289062 18.902344 104.132812 18.796875 103.957031 18.707031 C 103.785156 18.617188 103.464844 18.433594 103.246094 18.296875 C 103.027344 18.160156 102.828125 18.050781 102.808594 18.050781 C 102.785156 18.050781 102.554688 17.917969 102.296875 17.757812 C 102.039062 17.59375 101.800781 17.460938 101.773438 17.460938 C 101.742188 17.460938 101.613281 17.390625 101.480469 17.300781 C 101.246094 17.140625 101.074219 17.164062 101.074219 17.359375 C 101.074219 17.890625 99.445312 18.617188 98.597656 18.457031 C 95.464844 17.871094 95.792969 13.179688 98.96875 13.179688 C 99.929688 13.179688 100.9375 13.742188 101.15625 14.402344 C 101.175781 14.46875 101.214844 14.46875 101.339844 14.402344 C 101.425781 14.355469 101.585938 14.269531 101.691406 14.214844 C 101.800781 14.15625 102.070312 13.996094 102.292969 13.855469 C 102.515625 13.71875 102.71875 13.601562 102.746094 13.601562 C 102.777344 13.601562 102.945312 13.503906 103.125 13.386719 C 103.300781 13.265625 103.578125 13.101562 103.738281 13.023438 C 104.257812 12.765625 104.351562 12.667969 104.257812 12.484375 C 103.667969 11.335938 102.097656 10.167969 100.648438 9.804688 C 100.085938 9.664062 98.410156 9.566406 98.050781 9.652344 M 111.3125 9.773438 C 110.988281 9.855469 110.625 9.972656 110.5 10.039062 C 110.121094 10.234375 109.539062 10.652344 109.433594 10.800781 C 109.34375 10.933594 109.335938 10.910156 109.316406 10.425781 L 109.296875 9.910156 L 107.527344 9.890625 L 105.753906 9.875 L 105.753906 26.355469 L 109.328125 26.355469 L 109.328125 20.714844 L 109.476562 20.871094 C 110.605469 22.097656 113.3125 22.390625 115.070312 21.480469 C 115.828125 21.085938 117.128906 19.988281 117.128906 19.742188 C 117.128906 19.722656 117.261719 19.503906 117.421875 19.265625 C 117.582031 19.023438 117.714844 18.773438 117.714844 18.710938 C 117.714844 18.652344 117.742188 18.570312 117.777344 18.535156 C 118.398438 17.910156 118.476562 14.839844 117.910156 13.398438 C 116.78125 10.535156 114.101562 9.058594 111.3125 9.773438 M 123.917969 9.769531 C 119.257812 10.988281 118.078125 17.867188 122 20.933594 C 123.835938 22.363281 126.898438 22.382812 128.359375 20.972656 L 128.636719 20.703125 L 128.636719 21.714844 L 132.210938 21.714844 L 132.210938 9.875 L 130.4375 9.890625 L 128.667969 9.910156 L 128.648438 10.382812 L 128.628906 10.859375 L 128.355469 10.636719 C 127.222656 9.710938 125.457031 9.367188 123.917969 9.769531 M 87.359375 15.792969 L 87.359375 21.714844 L 90.933594 21.714844 L 90.902344 9.910156 L 89.132812 9.890625 L 87.359375 9.875 L 87.359375 15.792969 M 40.710938 12.953125 C 41.265625 13.121094 41.632812 13.40625 41.972656 13.929688 C 42.4375 14.636719 42.613281 14.585938 39.84375 14.585938 C 38.222656 14.585938 37.441406 14.5625 37.441406 14.515625 C 37.441406 14.328125 37.878906 13.636719 38.152344 13.394531 C 38.765625 12.859375 39.824219 12.675781 40.710938 12.953125 M 60.710938 13.277344 C 62.722656 14.308594 62.730469 17.328125 60.726562 18.351562 C 60.15625 18.640625 58.855469 18.640625 58.28125 18.347656 C 56.332031 17.351562 56.246094 14.519531 58.132812 13.359375 C 58.785156 12.960938 60.011719 12.921875 60.710938 13.277344 M 113.230469 13.265625 C 114.492188 13.871094 115.109375 15.605469 114.53125 16.921875 C 114.457031 17.085938 114.398438 17.253906 114.398438 17.300781 C 114.398438 17.460938 113.648438 18.152344 113.261719 18.347656 C 112.90625 18.523438 112.804688 18.542969 112.101562 18.5625 L 111.328125 18.585938 L 110.851562 18.347656 C 108.851562 17.351562 108.800781 14.324219 110.769531 13.300781 C 111.410156 12.964844 112.570312 12.949219 113.230469 13.265625 M 126.472656 13.078125 C 129.179688 13.46875 129.402344 17.714844 126.757812 18.511719 C 126.273438 18.660156 125.082031 18.5625 124.671875 18.339844 C 122.746094 17.300781 122.75 14.304688 124.679688 13.300781 C 125.167969 13.046875 125.761719 12.972656 126.472656 13.078125 "/>
</g>
</svg>
